<svg width="56" height="56" viewBox="0 0 56 56" fill="none" xmlns="http://www.w3.org/2000/svg">
<path d="M27.9954 18.1621C31.1998 18.1621 31.5762 18.1766 32.8431 18.2338C34.0149 18.2863 34.648 18.4814 35.0716 18.6482C35.6338 18.8669 36.033 19.1244 36.4528 19.5434C36.8726 19.9624 37.1339 20.3624 37.348 20.9246C37.5095 21.3482 37.7099 21.9813 37.7624 23.1531C37.8196 24.4193 37.834 24.7956 37.834 28.0008C37.834 31.2059 37.8196 31.5815 37.7624 32.8485C37.7099 34.0202 37.5148 34.6533 37.348 35.0769C37.1286 35.6391 36.8718 36.0383 36.4528 36.4581C36.0338 36.8779 35.6338 37.1392 35.0716 37.3533C34.648 37.5148 34.0149 37.7152 32.8431 37.7678C31.5762 37.8249 31.2006 37.8394 27.9954 37.8394C24.7903 37.8394 24.4147 37.8249 23.1477 37.7678C21.9768 37.7152 21.3429 37.5202 20.9193 37.3533C20.3578 37.1339 19.9571 36.8771 19.5381 36.4581C19.119 36.0391 18.857 35.6391 18.6429 35.0769C18.4814 34.6533 18.281 34.0202 18.2284 32.8485C18.1713 31.5815 18.1568 31.2059 18.1568 28.0008C18.1568 24.7956 18.1713 24.42 18.2284 23.1531C18.281 21.9821 18.476 21.3482 18.6429 20.9246C18.8615 20.3632 19.119 19.9624 19.5381 19.5434C19.9571 19.1244 20.3571 18.8623 20.9193 18.6482C21.3429 18.4867 21.9768 18.2863 23.1477 18.2338C24.4139 18.1721 24.7903 18.1621 27.9954 18.1621ZM27.9954 16C24.7385 16 24.3286 16.0145 23.0479 16.0716C21.7718 16.1288 20.9003 16.3337 20.1384 16.6285C19.3484 16.9333 18.681 17.3477 18.0143 18.0143C17.3477 18.681 16.9378 19.3522 16.6285 20.1384C16.3337 20.9003 16.1288 21.7718 16.0716 23.0525C16.0145 24.3286 16 24.7385 16 27.9954C16 31.2524 16.0145 31.6622 16.0716 32.9429C16.1288 34.219 16.3337 35.0906 16.6285 35.857C16.9333 36.6478 17.3477 37.3145 18.0143 37.9811C18.681 38.6477 19.3522 39.0576 20.1384 39.3669C20.9003 39.6617 21.7718 39.8667 23.0525 39.9238C24.3332 39.981 24.7385 39.9954 28 39.9954C31.2615 39.9954 31.6668 39.981 32.9475 39.9238C34.2236 39.8667 35.0952 39.6617 35.8616 39.3669C36.6524 39.0622 37.319 38.6477 37.9857 37.9811C38.6523 37.3145 39.0622 36.6433 39.3715 35.857C39.6663 35.0952 39.8712 34.2236 39.9284 32.9429C39.9855 31.6622 40 31.2577 40 27.9954C40 24.7332 39.9855 24.3286 39.9284 23.0479C39.8712 21.7718 39.6663 20.9003 39.3715 20.1338C39.0667 19.343 38.6523 18.6764 37.9857 18.0098C37.319 17.3432 36.6478 16.9333 35.8616 16.624C35.0997 16.3291 34.2282 16.1242 32.9475 16.067C31.6615 16.0145 31.2524 16 27.9954 16Z" fill="#222222"/>
<path d="M27.9954 21.8328C26.3732 21.8508 24.8235 22.5079 23.6827 23.6615C22.5419 24.815 21.902 26.3719 21.902 27.9943C21.902 29.6167 22.5419 31.1736 23.6827 32.3271C24.8235 33.4807 26.3732 34.1378 27.9954 34.1558C31.3956 34.1558 34.1566 31.3941 34.1566 27.9939C34.1566 24.5937 31.3948 21.832 27.9947 21.832L27.9954 21.8328ZM27.9954 31.9944C26.9346 31.9944 25.9173 31.573 25.1672 30.8229C24.4171 30.0728 23.9957 29.0555 23.9957 27.9947C23.9957 26.9339 24.4171 25.9165 25.1672 25.1664C25.9173 24.4163 26.9346 23.9949 27.9954 23.9949C29.0562 23.9949 30.0736 24.4163 30.8237 25.1664C31.5738 25.9165 31.9952 26.9339 31.9952 27.9947C31.9952 29.0555 31.5738 30.0728 30.8237 30.8229C30.0736 31.573 29.0562 31.9944 27.9954 31.9944ZM35.838 21.5905C35.8381 21.7793 35.801 21.9663 35.7288 22.1407C35.6567 22.3152 35.5509 22.4737 35.4174 22.6073C35.284 22.7408 35.1256 22.8468 34.9512 22.9192C34.7768 22.9915 34.5899 23.0288 34.4011 23.0289C34.2123 23.029 34.0254 22.9919 33.8509 22.9197C33.6764 22.8476 33.5179 22.7418 33.3843 22.6084C33.2508 22.4749 33.1448 22.3165 33.0725 22.1421C33.0001 21.9677 32.9628 21.7808 32.9627 21.592C32.9624 21.2107 33.1136 20.845 33.383 20.5751C33.6524 20.3053 34.0179 20.1536 34.3992 20.1533C34.7805 20.153 35.1463 20.3041 35.4161 20.5735C35.6859 20.8429 35.8377 21.2092 35.838 21.5905Z" fill="#222222"/>
<circle cx="28" cy="28" r="27" stroke="#222222" stroke-width="2"/>
</svg>
