<svg width="56" height="56" viewBox="0 0 56 56" fill="none" xmlns="http://www.w3.org/2000/svg">
<circle cx="28" cy="28" r="27" stroke="#222222" stroke-width="2"/>
<path d="M40 19.8376C39.322 20.8517 38.5084 21.7108 37.5591 22.415C37.5591 22.4835 37.5676 22.5911 37.5848 22.7376C37.6019 22.8841 37.6105 22.9916 37.6105 23.0602C37.6105 24.4005 37.4156 25.7409 37.0256 27.0813C36.6357 28.4217 36.0425 29.702 35.246 30.9222C34.4495 32.1424 33.5046 33.225 32.4112 34.1701C31.3179 35.1151 30.0044 35.8712 28.4706 36.4384C26.9369 37.0055 25.2886 37.2891 23.5256 37.2891C20.7795 37.2891 18.2709 36.5417 16 35.0469C16.4747 35.0811 16.8646 35.0983 17.1698 35.0983C19.4579 35.0983 21.5003 34.3938 23.2971 32.9849C22.2292 32.9675 21.2757 32.6368 20.4366 31.9927C19.5975 31.3486 19.0084 30.5195 18.6694 29.5054C18.9575 29.5739 19.271 29.6081 19.6099 29.6081C20.0675 29.6081 20.4998 29.5394 20.9068 29.4018C19.7714 29.1614 18.8306 28.5859 18.0845 27.6751C17.3385 26.7643 16.9655 25.7161 16.9655 24.5307V24.4793C17.6096 24.823 18.3468 25.012 19.1771 25.0462C18.5163 24.5993 17.991 24.0108 17.601 23.2807C17.2111 22.5507 17.0161 21.7646 17.0161 20.9223C17.0161 20.0632 17.228 19.2211 17.6517 18.3962C18.8891 19.9601 20.3849 21.193 22.139 22.0948C23.8932 22.9966 25.7957 23.4992 27.8468 23.6025C27.7282 23.173 27.669 22.795 27.669 22.4688C27.669 21.0941 28.1519 19.9214 29.1179 18.9505C30.0839 17.9796 31.262 17.4941 32.6522 17.4941C33.3302 17.4941 33.9826 17.6317 34.6096 17.9068C35.2367 18.182 35.7706 18.5686 36.2115 19.0667C37.3303 18.8432 38.3727 18.4395 39.3387 17.8555C38.9826 19.024 38.2622 19.9432 37.1777 20.6132C38.2118 20.4756 39.1526 20.2179 40 19.8399V19.8376Z" fill="#222222"/>
</svg>
