<svg width="56" height="56" viewBox="0 0 56 56" fill="none" xmlns="http://www.w3.org/2000/svg">
<circle cx="28" cy="28" r="27" stroke="#222222" stroke-width="2"/>
<path d="M16 35.1536C16 36.1258 16.3165 36.9525 16.9495 37.6337C17.5825 38.315 18.3531 38.6553 19.2614 38.6545H36.7386C37.6469 38.6545 38.4175 38.3142 39.0505 37.6337C39.6835 36.9532 40 36.1265 40 35.1536V21.0531C40 20.0809 39.6804 19.2448 39.0411 18.5445C38.4019 17.8443 37.6344 17.4941 36.7386 17.4941H19.2614C18.3664 17.4941 17.5989 17.8443 16.9589 18.5445C16.3188 19.2448 15.9992 20.0809 16 21.0531V35.1536ZM24.7293 32.6059V23.6007C24.7293 23.5099 24.755 23.4387 24.8065 23.3874C24.8447 23.3747 24.8766 23.3684 24.9024 23.3684L24.9982 23.3874L33.3627 27.8994C33.4142 27.9516 33.4399 28.0164 33.4399 28.0939C33.4399 28.146 33.4142 28.1978 33.3627 28.2492L24.9982 32.7612C24.9725 32.7873 24.9468 32.8004 24.9211 32.8004C24.8696 32.8004 24.8314 32.7873 24.8065 32.7612C24.755 32.7091 24.7293 32.6573 24.7293 32.6059Z" fill="#222222"/>
</svg>
